<svg width="24" height="24" viewBox="0 0 24 24" fill="none" xmlns="http://www.w3.org/2000/svg">
<path d="M0 12C0 5.37258 5.37258 0 12 0V0C18.6274 0 24 5.37258 24 12V12C24 18.6274 18.6274 24 12 24V24C5.37258 24 0 18.6274 0 12V12Z" fill="white"/>
<path d="M7.95491 16.4434C7.93746 16.7086 7.80218 16.8914 7.54909 16.992C7.30473 17.0926 6.85964 17.1429 6.21382 17.1429C5.568 17.1429 5.02691 17.0834 4.59055 16.9646C4.16291 16.8366 3.94909 16.6766 3.94909 16.4846C3.94909 16.2651 4.33745 14.8663 5.11418 12.288C5.89091 9.70057 6.336 8.21029 6.44945 7.81714C6.49309 7.69829 6.84218 7.60229 7.49673 7.52914C8.16 7.44686 8.86691 7.40571 9.61745 7.40571C10.3767 7.40571 10.7956 7.54286 10.8742 7.81714C12.5236 13.5589 13.3484 16.4754 13.3484 16.5669C13.3484 16.6583 13.296 16.7497 13.1913 16.8411C12.9469 17.0423 12.4625 17.1429 11.7382 17.1429C10.1935 17.1429 9.40364 16.9509 9.36873 16.5669L9.34079 16.295C9.3046 15.943 9.00807 15.6754 8.65422 15.6754V15.6754C8.29577 15.6754 7.99698 15.9498 7.96654 16.307L7.95491 16.4434ZM8.6506 13.0697C8.84009 13.0697 8.98933 12.9081 8.9743 12.7192L8.8173 10.7454C8.81082 10.664 8.7428 10.6011 8.66106 10.6011V10.6011C8.57995 10.6011 8.51224 10.663 8.50496 10.7438L8.32718 12.7158C8.31004 12.9059 8.45974 13.0697 8.6506 13.0697V13.0697Z" fill="black"/>
<path d="M18.2663 16.8137C18.2663 16.9143 17.9957 16.9966 17.4546 17.0606C16.9223 17.1154 16.3855 17.1429 15.8444 17.1429C15.3121 17.1429 14.9717 17.12 14.8233 17.0743C14.6837 17.0194 14.6139 16.9326 14.6139 16.8137V12.7362C14.6139 11.7313 13.7992 10.9166 12.7943 10.9166V10.9166C12.6983 10.9166 12.6153 10.7886 12.5455 10.5326C12.4757 10.2766 12.4408 9.89714 12.4408 9.39429C12.4408 8.88229 12.4932 8.42514 12.5979 8.02286C12.7026 7.61143 12.8423 7.40571 13.0168 7.40571H20.099C20.2299 7.40571 20.3172 7.53371 20.3608 7.78971C20.4132 8.04571 20.4393 8.416 20.4393 8.90057C20.4393 9.38514 20.3913 9.84229 20.2953 10.272C20.1993 10.7017 20.0684 10.9166 19.9026 10.9166V10.9166C18.9989 10.9166 18.2663 11.6492 18.2663 12.5529V16.8137Z" fill="black"/>
</svg>
